<svg xmlns="http://www.w3.org/2000/svg" width="21.002" height="26" viewBox="0 0 21.002 26">
  <path id="max_n_upgrade" d="M-10699-6959h-17a2,2,0,0,1-2-2v-22a2,2,0,0,1,2-2h17a2,2,0,0,1,2,2v22A2,2,0,0,1-10699-6959Zm-7.609-19.772a7.328,7.328,0,0,0-5.915,2.95,7.4,7.4,0,0,0,1.477,10.348,7.317,7.317,0,0,0,4.425,1.474,7.43,7.43,0,0,0,5.923-2.954,7.417,7.417,0,0,0,1.283-2.735l-1.88-.441a5.4,5.4,0,0,1-.944,2.02,5.425,5.425,0,0,1-4.378,2.183,5.414,5.414,0,0,1-3.272-1.091,5.42,5.42,0,0,1-2.126-3.6,5.423,5.423,0,0,1,1.034-4.05,5.415,5.415,0,0,1,4.372-2.181,5.457,5.457,0,0,1,2.737.736l-1.711,2.281h6.426l-1.8-6.171-1.754,2.34A7.359,7.359,0,0,0-10706.609-6978.772Z" transform="translate(10718.001 6985)" fill="#fff"/>
</svg>
