<svg xmlns="http://www.w3.org/2000/svg" width="25.24" height="18.44" viewBox="0 0 25.24 18.44">
  <path id="harvester-icon_setup6" d="M18,3.94a7.25,7.25,0,1,0,7.24,7.26v-.02A7.251,7.251,0,0,0,18,3.94Zm4.92,10.34L19.59,12a1.837,1.837,0,0,1-.79.79l2.28,3.31a6.006,6.006,0,0,1-1.8.75l-.73-4A1.784,1.784,0,0,1,18,13a1.725,1.725,0,0,1-.56-.1l-.73,4a6.011,6.011,0,0,1-1.81-.75l2.28-3.31a1.837,1.837,0,0,1-.79-.79l-3.31,2.28a5.774,5.774,0,0,1-.75-1.81l3.95-.73a1.787,1.787,0,0,1,0-1.12l-3.95-.73a5.619,5.619,0,0,1,.75-1.8l3.31,2.27a1.837,1.837,0,0,1,.79-.79L14.89,6.26a6.011,6.011,0,0,1,1.81-.75l.73,4a1.725,1.725,0,0,1,.56-.1,1.78,1.78,0,0,1,.56.1l.73-4a6.006,6.006,0,0,1,1.8.75L18.8,9.57a1.837,1.837,0,0,1,.79.79l3.32-2.27a5.6,5.6,0,0,1,.74,1.8l-3.95.73a1.622,1.622,0,0,1,0,1.12l3.95.73a5.771,5.771,0,0,1-.74,1.81Zm-4.92-2a1.13,1.13,0,1,1,1.13-1.13h0a1.13,1.13,0,0,1-1.1,1.16H18ZM9.61,11.24v.08c-1.43,0-2.59-.07-3.57-.14H5.29A13.509,13.509,0,0,0,0,12.3,15.644,15.644,0,0,1,8.16,4.06l1-.38L8.42,2.9A11.814,11.814,0,0,1,6.24,0a21.658,21.658,0,0,0,8.47,3.47,7.176,7.176,0,0,0-1.16.62h0a10.318,10.318,0,0,0-1,.78h0l-5.1,2h3.47a8.283,8.283,0,0,0-1.2,3.02v.2a7.793,7.793,0,0,0-.08,1.09Zm4.19,7.19H.44L4.8,13h5A8.4,8.4,0,0,0,13.8,18.43Z" fill="#fff"/>
</svg>
