<svg xmlns="http://www.w3.org/2000/svg" width="13.812" height="22.483" viewBox="0 0 13.812 22.483">
  <path id="refinre_icon-setup6" d="M13.116,9.672l-.684-6.216h-.7V1.38L10.356,0h-6.9L2.076,2.076v1.38h-.7L.7,9.672,0,13.116l.965.489L.7,15.876l4.189,2.772H8.976l4.14-2.772L12.848,13.6l.965-.489ZM2.76,4.482A7.034,7.034,0,0,1,6.338,3.468L5.825,5.361,5.3,5.288l-2.54-.4Zm6.827,9.587h-5.5v-.794h5.5Zm1.466-9.184-2.736.391,1.221,5.972H4.226L6.9,10.173V3.456a7.33,7.33,0,0,1,4.152,1.026Zm1.38,12.884v2.259l-1.038.464-4.287.513v.256H9.55L6.863,22.483l-.989-.452L7.328,21.9v-.208l-2.589-.134-1.856-.794H6.106v-.366L1.38,19.54V17.806l2.772,1.856.318.208H9.355l.318-.208Z" fill="#fff"/>
</svg>
