<svg xmlns="http://www.w3.org/2000/svg" width="21.467" height="22.684" viewBox="0 0 21.467 22.684">
  <path id="scavenger-icon_setup6" d="M19.008,17.311l-3.283-1.672.2-1.229,2.766-.566,1.647.7.664,1.6ZM16.413,3.16h-.787l-.578.578L14.8,4.967l.467.283L16.5,4.156Zm2.029,6.6-.2-2.287-1.684-.1L15.245,8.606l-.639,2.754,1,.664ZM7.574,4.008l.209-2.9L6.356,0,5.4.971V2.385L6.627,4.229ZM5.029,6.024,2.016,5.188l-.91,2.188.934,2.275,3.234,2.115,1.316-.959Zm.59,9.614-.184-1.229-2.766-.516-1.66.7-.652,1.6,1.992,1.119Zm13.7,2.8-.283.16-.59-.258-3.283-1.672-.75-.381.135-.836.2-1.229v-.111h-.553L13.4,16.573l-.258.8H8.053l-.283-.75-.934-2.459H6.553v.111L6.738,15.5l.135.836-.725.332L2.865,18.344l-.541.283-.246-.184L0,19.524H0l2.029,3.123H3.418L3.012,20.9l4.918-1.02,2.8,2.8,2.791-2.828L18.442,20.9l-.393,1.783h1.389l2.029-3.123h0ZM8.852,2.324,11.5.7l2.385,2.988-.209,1.107-.148.8.689.418.467.283.713.43h0L15.307,7l-.9.824-.258.246-.074.344-.553,2.717-.184.775.369.246-1.316,4.094H8.852L7.18,11.8h.086l.689-.5-.27-.8L6.455,6.578l.27-1.094h.258l.922-.234.762-.332V4.082Zm2.533.689.529,3.762-1.6,6.233,1.229,2.053-.43-2.127,1.832-6.221Zm-1.07,9.971L9.393,9.43,9.7,7.291l-.91,2.1,1.045,3.553L9.59,14.176Z" fill="#fff"/>
</svg>
