<svg xmlns="http://www.w3.org/2000/svg" height="25" width="25"><path d="M5.635 24.122l-.89.167a1.192 1.192 0 01-.223.021 1.302 1.302 0 01-1.255-1.125L.024 3.549a1.357 1.357 0 011.034-1.577l2.73-.514a3.07 3.07 0 00-.24 1.444l1.628 19.863a3.044 3.044 0 00.46 1.357zm3.162-2.045V1.965a2.917 2.917 0 01.161-.916l-2.58.24a1.339 1.339 0 00-1.16 1.476l1.628 19.863a1.31 1.31 0 001.268 1.243q.057 0 .114-.006l1.105-.103a2.929 2.929 0 01-.53-1.685zM23.725.69H11.751a1.275 1.275 0 00-1.275 1.275v20.112a1.275 1.275 0 001.275 1.274h11.974A1.275 1.275 0 0025 22.077V1.965A1.275 1.275 0 0023.723.69z" fill="#fff"/></svg>