<?xml version="1.0" encoding="UTF-8" standalone="no"?>
<svg
   xmlns:dc="http://purl.org/dc/elements/1.1/"
   xmlns:cc="http://creativecommons.org/ns#"
   xmlns:rdf="http://www.w3.org/1999/02/22-rdf-syntax-ns#"
   xmlns:svg="http://www.w3.org/2000/svg"
   xmlns="http://www.w3.org/2000/svg"
   id="svg8"
   version="1.1"
   viewBox="0 0 26.000001 26"
   height="26"
   width="26">
  <metadata
     id="metadata12">
    <rdf:RDF>
      <cc:Work
         rdf:about="">
        <dc:format>image/svg+xml</dc:format>
        <dc:type
           rdf:resource="http://purl.org/dc/dcmitype/StillImage" />
        <dc:title></dc:title>
      </cc:Work>
    </rdf:RDF>
  </metadata>
  <defs
     id="defs4">
    <style
       id="style2">.a{fill:#ff1371;}</style>
  </defs>
  <path
     style="stroke-width:0.982606;fill:#ffffff"
     id="path6"
     d="M 5.8605128,25.087034 4.9339156,25.260955 A 1.2400484,1.2400484 0 0 1 4.7030033,25.282573 1.3540307,1.3540307 0 0 1 3.3981029,24.112289 L 0.0248175,3.6907949 A 1.4110218,1.4110218 0 0 1 1.1007707,2.050826 L 3.9405012,1.5162885 A 3.1934686,3.1934686 0 0 0 3.6899368,3.01771 l 1.6930296,20.658302 a 3.1659556,3.1659556 0 0 0 0.4775464,1.411022 z M 9.1492941,22.959693 V 2.0439477 A 3.0333038,3.0333038 0 0 1 9.3163371,1.0908203 L 6.6328409,1.3413847 A 1.3923523,1.3923523 0 0 0 5.4271837,2.8752322 L 7.1202133,23.533535 a 1.3618915,1.3618915 0 0 0 1.3186569,1.292126 q 0.058956,0 0.1179126,-0.0059 l 1.1496487,-0.1071 A 3.0460777,3.0460777 0 0 1 9.1542071,22.959693 Z M 24.674464,0.71743008 H 12.22092 A 1.3255351,1.3255351 0 0 0 10.895385,2.0439477 V 22.959693 a 1.3255351,1.3255351 0 0 0 1.325535,1.325535 H 24.674464 A 1.3255351,1.3255351 0 0 0 26,22.959693 V 2.0439477 A 1.3255351,1.3255351 0 0 0 24.671517,0.71743008 Z"
     class="a" />
</svg>
