<svg xmlns="http://www.w3.org/2000/svg" width="73.391" height="16.008"><g data-name="Group 56"><path data-name="Path 7" d="M65.023 10.898v.908a4.183 4.183 0 0 0 8.367 0V4.189a4.086 4.086 0 0 0-1.225-2.958 4.153 4.153 0 0 0-5.872-.015l-.03.03a4.127 4.127 0 0 0-1.24 2.943V5.28a4.086 4.086 0 0 0 1.225 2.958 4.086 4.086 0 0 0 2.958 1.225h.687l-.971-2.928a.789.789 0 0 1-.6-.284 1.461 1.461 0 0 1-.374-.971V4.189a1.254 1.254 0 0 1 .374-.9 1.281 1.281 0 0 1 1.778 0 1.254 1.254 0 0 1 .374.9v7.617a1.254 1.254 0 0 1-.374.9 1.281 1.281 0 0 1-1.778 0 1.254 1.254 0 0 1-.374-.9v-.911zm-8.128 5.108h2.973l2.674-16h-2.913L58.553 7.76h-.344L57.149.006h-2.913z" fill="#fff"/><path data-name="Path 8" d="M37.964 16.007h2.928V4.189a4.052 4.052 0 0 0-1.225-2.943 4.148 4.148 0 0 0-5.857-.06l-.045.045a4.032 4.032 0 0 0-1.252 2.958v11.818h2.928V4.189a1.254 1.254 0 0 1 .374-.9 1.281 1.281 0 0 1 1.778 0 1.254 1.254 0 0 1 .374.9z" fill="#3bb3b6"/><path data-name="Path 9" d="M13.521 16.007h2.973l2.674-16h-2.912L15.18 7.76h-.329L13.775.006h-2.913zm-9.338-16A4.053 4.053 0 0 0 1.24 1.231 4.018 4.018 0 0 0 .002 4.189v7.62a4.086 4.086 0 0 0 1.225 2.958 4.018 4.018 0 0 0 2.958 1.24 4.086 4.086 0 0 0 2.957-1.225 4.086 4.086 0 0 0 1.225-2.958v-.926H5.453v.911a1.254 1.254 0 0 1-.374.9 1.272 1.272 0 0 1-1.793 0 1.254 1.254 0 0 1-.374-.9v-7.62a1.254 1.254 0 0 1 .374-.9 1.272 1.272 0 0 1 1.793 0 1.205 1.205 0 0 1 .359.9V5.28a1.377 1.377 0 0 1-.359.971.788.788 0 0 1-.6.284l-.968 2.928h.672a4.086 4.086 0 0 0 2.959-1.225A4.086 4.086 0 0 0 8.367 5.28V4.189a4.052 4.052 0 0 0-1.225-2.943A4.018 4.018 0 0 0 4.183.006m22.576 11.818a.879.879 0 0 1-.269.657.92.92 0 0 1-1.3 0 .879.879 0 0 1-.269-.657V4.189a.912.912 0 0 1 .941-.911.893.893 0 0 1 .9.911zm2.032-10.593a4.153 4.153 0 0 0-5.872-.015l-.03.03a4.127 4.127 0 0 0-1.24 2.943v7.62a4.184 4.184 0 0 0 7.142 2.943 4.067 4.067 0 0 0 1.24-2.928V4.189a4.018 4.018 0 0 0-1.24-2.958m19.692 10.593a.879.879 0 0 1-.269.657.92.92 0 0 1-1.3 0 .879.879 0 0 1-.269-.657V4.189a.912.912 0 0 1 .941-.911.893.893 0 0 1 .9.911zm2.019-10.593a4.135 4.135 0 0 0-5.857-.03l-.045.045a4.052 4.052 0 0 0-1.225 2.943v7.62a4.183 4.183 0 0 0 8.367 0v-7.62a4.018 4.018 0 0 0-1.24-2.958" fill="#fff"/></g></svg>