<svg xmlns="http://www.w3.org/2000/svg" viewBox="0 0 73.391 16.008"><defs><style>.cls-1{fill:#fff}</style></defs><g id="Group_56" data-name="Group 56" transform="translate(.002 .038)"><path id="Path_7" data-name="Path 7" class="cls-1" d="M373.787 10.892v.908a4.183 4.183 0 0 0 8.367 0V4.183a4.086 4.086 0 0 0-1.225-2.958 4.153 4.153 0 0 0-5.872-.015l-.03.03a4.127 4.127 0 0 0-1.24 2.943v1.091a4.086 4.086 0 0 0 1.225 2.958 4.086 4.086 0 0 0 2.958 1.225h.687l-.971-2.928a.789.789 0 0 1-.6-.284 1.461 1.461 0 0 1-.374-.971V4.183a1.254 1.254 0 0 1 .374-.9 1.281 1.281 0 0 1 1.778 0 1.254 1.254 0 0 1 .374.9V11.8a1.254 1.254 0 0 1-.374.9 1.281 1.281 0 0 1-1.778 0 1.254 1.254 0 0 1-.374-.9v-.911zM365.659 16h2.973l2.674-16h-2.913l-1.076 7.754h-.344L365.913 0H363z" transform="translate(-308.766 -.032)"/><path id="Path_8" data-name="Path 8" d="M223.051 16h2.928V4.182a4.052 4.052 0 0 0-1.225-2.943 4.148 4.148 0 0 0-5.857-.06l-.045.045a4.032 4.032 0 0 0-1.252 2.958V16h2.928V4.182a1.254 1.254 0 0 1 .374-.9 1.281 1.281 0 0 1 1.778 0 1.254 1.254 0 0 1 .374.9z" transform="translate(-185.089 -.031)" fill="#3bb3b6"/><path id="Path_9" data-name="Path 9" class="cls-1" d="M13.519 15.969h2.973l2.674-16h-2.912l-1.076 7.753h-.329L13.773-.032H10.86zm-9.338-16a4.053 4.053 0 0 0-2.943 1.224A4.018 4.018 0 0 0 0 4.151v7.62a4.086 4.086 0 0 0 1.225 2.958 4.018 4.018 0 0 0 2.958 1.24 4.086 4.086 0 0 0 2.957-1.225 4.086 4.086 0 0 0 1.225-2.958v-.926H5.451v.911a1.254 1.254 0 0 1-.374.9 1.272 1.272 0 0 1-1.793 0 1.254 1.254 0 0 1-.374-.9v-7.62a1.254 1.254 0 0 1 .374-.9 1.272 1.272 0 0 1 1.793 0 1.205 1.205 0 0 1 .359.9v1.091a1.377 1.377 0 0 1-.359.971.788.788 0 0 1-.6.284l-.968 2.928h.672A4.086 4.086 0 0 0 7.14 8.2a4.086 4.086 0 0 0 1.225-2.958V4.151A4.052 4.052 0 0 0 7.14 1.208a4.018 4.018 0 0 0-2.959-1.24m22.576 11.818a.879.879 0 0 1-.269.657.92.92 0 0 1-1.3 0 .879.879 0 0 1-.269-.657V4.151a.912.912 0 0 1 .941-.911.893.893 0 0 1 .9.911zm2.032-10.593a4.153 4.153 0 0 0-5.872-.015l-.03.03a4.127 4.127 0 0 0-1.24 2.943v7.62a4.184 4.184 0 0 0 7.142 2.943 4.067 4.067 0 0 0 1.24-2.928V4.151a4.018 4.018 0 0 0-1.24-2.958m19.692 10.593a.879.879 0 0 1-.269.657.92.92 0 0 1-1.3 0 .879.879 0 0 1-.269-.657V4.151a.912.912 0 0 1 .941-.911.893.893 0 0 1 .9.911zM50.5 1.193a4.135 4.135 0 0 0-5.857-.03l-.045.045a4.052 4.052 0 0 0-1.225 2.943v7.62a4.183 4.183 0 0 0 8.367 0v-7.62a4.018 4.018 0 0 0-1.24-2.958"/></g></svg>