<svg xmlns="http://www.w3.org/2000/svg" height="25" width="25"><path d="M24.744 9.994a12.526 12.526 0 00-3.6-6.516A12.45 12.45 0 0014.451.157 13.621 13.621 0 0012.503 0a12.567 12.567 0 00-7.247 2.319 12.598 12.598 0 00-4.49 5.884 12.545 12.545 0 00-.292 7.699 12.498 12.498 0 004.078 6.24 12.556 12.556 0 006.964 2.819 12.512 12.512 0 007.461-1.765 12.58 12.58 0 004.909-5.524 12.627 12.627 0 00.858-7.678zm-18.849 4.24A1.756 1.756 0 014.26 13.09a1.753 1.753 0 01.533-1.937 1.75 1.75 0 011.979-.156 1.745 1.745 0 01.83 1.821 1.753 1.753 0 01-1.707 1.415zm13.642 0a1.755 1.755 0 01-1.633-1.144 1.75 1.75 0 01.533-1.937 1.75 1.75 0 011.978-.156 1.746 1.746 0 01.83 1.821 1.762 1.762 0 01-1.708 1.415zM11.08 13.09a1.75 1.75 0 01.533-1.937 1.75 1.75 0 011.98-.156 1.746 1.746 0 01.829 1.821 1.753 1.753 0 01-1.708 1.415 1.755 1.755 0 01-1.634-1.143z" fill="#fff"/></svg>