<?xml version="1.0" encoding="UTF-8" standalone="no"?>
<svg
   xmlns:dc="http://purl.org/dc/elements/1.1/"
   xmlns:cc="http://creativecommons.org/ns#"
   xmlns:rdf="http://www.w3.org/1999/02/22-rdf-syntax-ns#"
   xmlns:svg="http://www.w3.org/2000/svg"
   xmlns="http://www.w3.org/2000/svg"
   id="svg8"
   version="1.1"
   viewBox="0 0 26.000001 26.000001"
   height="26"
   width="26">
  <metadata
     id="metadata12">
    <rdf:RDF>
      <cc:Work
         rdf:about="">
        <dc:format>image/svg+xml</dc:format>
        <dc:type
           rdf:resource="http://purl.org/dc/dcmitype/StillImage" />
        <dc:title></dc:title>
      </cc:Work>
    </rdf:RDF>
  </metadata>
  <defs
     id="defs4">
    <style
       id="style2">.a{fill:#ffdeec;}</style>
  </defs>
  <path
     style="stroke-width:1.03987;fill:#ffffff"
     id="path6"
     d="M 25.733462,10.393492 A 13.027481,13.027481 0 0 0 21.989933,3.6166649 12.948451,12.948451 0 0 0 15.029049,0.16325937 14.166138,14.166138 0 0 0 13.003384,-8.6851045e-8 13.070116,13.070116 0 0 0 5.4664126,2.4114565 a 13.102351,13.102351 0 0 0 -4.66901261,6.11963 13.047238,13.047238 0 0 0 -0.30468167,8.0069925 12.998365,12.998365 0 0 0 4.24162638,6.488784 13.058677,13.058677 0 0 0 7.2426883,2.932431 13.012923,13.012923 0 0 0 7.759504,-1.835369 13.083634,13.083634 0 0 0 5.104718,-5.745277 13.132508,13.132508 0 0 0 0.892207,-7.985156 z M 6.130889,14.802538 a 1.8260103,1.8260103 0 0 1 -1.7001861,-1.188571 1.8228906,1.8228906 0 0 1 0.5542502,-2.015266 1.8208109,1.8208109 0 0 1 2.0579011,-0.16222 1.8145717,1.8145717 0 0 1 0.8630914,1.894642 1.8228906,1.8228906 0 0 1 -1.7750566,1.471415 z m 14.187975,0 a 1.8249704,1.8249704 0 0 1 -1.699146,-1.188571 1.8208109,1.8208109 0 0 1 0.55425,-2.015266 1.8208109,1.8208109 0 0 1 2.057901,-0.16222 1.8156116,1.8156116 0 0 1 0.863091,1.894642 1.8322495,1.8322495 0 0 1 -1.776096,1.471415 z M 11.52261,13.613967 a 1.8208109,1.8208109 0 0 1 0.554251,-2.015266 1.8208109,1.8208109 0 0 1 2.057901,-0.16222 1.8156116,1.8156116 0 0 1 0.863091,1.894642 1.8228906,1.8228906 0 0 1 -1.776096,1.471415 1.8249704,1.8249704 0 0 1 -1.699147,-1.188571 z"
     class="a" />
</svg>
