<?xml version="1.0" encoding="UTF-8" standalone="no"?>
<svg
   xmlns:dc="http://purl.org/dc/elements/1.1/"
   xmlns:cc="http://creativecommons.org/ns#"
   xmlns:rdf="http://www.w3.org/1999/02/22-rdf-syntax-ns#"
   xmlns:svg="http://www.w3.org/2000/svg"
   xmlns="http://www.w3.org/2000/svg"
   id="svg20"
   version="1.1"
   viewBox="0 0 26 26"
   height="26"
   width="26">
  <metadata
     id="metadata24">
    <rdf:RDF>
      <cc:Work
         rdf:about="">
        <dc:format>image/svg+xml</dc:format>
        <dc:type
           rdf:resource="http://purl.org/dc/dcmitype/StillImage" />
        <dc:title></dc:title>
      </cc:Work>
    </rdf:RDF>
  </metadata>
  <defs
     id="defs16">
    <style
       id="style14">.a{fill:#ffdeec;stroke:rgba(0,0,0,0);stroke-miterlimit:10;}</style>
  </defs>
  <path
     style="stroke-width:1.04"
     id="path18"
     d="M 0,26 V 0 h 26 v 26 z m 14.534,-5.78136 a 3.06488,3.06488 0 0 0 3.06488,3.06488 3.06696,3.06696 0 0 0 3.06488,-3.06488 3.06488,3.06488 0 0 0 -3.06488,-3.06488 3.0628,3.0628 0 0 0 -3.06488,3.06384 z m -9.19568,0 A 3.06592,3.06592 0 0 0 8.4032,23.28352 3.06592,3.06592 0 0 0 11.46808,20.21864 3.06384,3.06384 0 0 0 8.4032,17.15376 3.06384,3.06384 0 0 0 5.33728,20.2176 Z m 6.00288,-9.31736 -0.16016,0.11648 A 2.82464,2.82464 0 0 0 10.1556,14.1752 l 0.06136,0.1872 a 2.82256,2.82256 0 0 0 2.68528,1.95104 h 0.19552 a 2.8236,2.8236 0 0 0 2.68632,-1.95104 l 0.06032,-0.1872 a 2.82152,2.82152 0 0 0 -1.02544,-3.15744 l -0.15808,-0.11648 a 2.82672,2.82672 0 0 0 -1.664,-0.53872 2.82152,2.82152 0 0 0 -1.66088,0.53768 z m 5.928,0.97864 a 3.0628,3.0628 0 0 0 3.06488,3.06488 3.06384,3.06384 0 0 0 3.06488,-3.06488 3.06592,3.06592 0 0 0 -3.06488,-3.06488 3.06488,3.06488 0 0 0 -3.06384,3.06488 z m -14.67024,0 A 3.0628,3.0628 0 0 0 5.66384,14.9448 3.06384,3.06384 0 0 0 8.72872,11.87992 3.06592,3.06592 0 0 0 5.66384,8.81504 3.06488,3.06488 0 0 0 2.6,11.87992 Z m 7.33512,-6.292 A 3.06592,3.06592 0 0 0 12.99896,8.6528 3.06592,3.06592 0 0 0 16.06384,5.58792 3.06592,3.06592 0 0 0 12.99896,2.522 3.06592,3.06592 0 0 0 9.93512,5.58688 Z m 2.35144,9.2872 0.28496,-0.3848 h 0.86424 l 0.28184,0.38896 -0.71968,0.97968 z m 1.52464,-0.74152 0.2548,-0.82576 0.45344,-0.156 0.728,0.97448 -1.15232,0.39208 z m -3.05968,0 0.71968,-0.98176 0.45448,0.15184 0.26312,0.82368 -0.28288,0.38688 z m 2.62496,-1.89176 v -0.48048 l 1.15648,-0.3796 v 1.2168 l -0.45448,0.14872 z m -1.89904,0.35672 v -1.2168 l 1.15648,0.3796 v 0.48048 l -0.702,0.50544 z"
     class="a" />
</svg>
