<svg xmlns="http://www.w3.org/2000/svg" width="25" height="25"><path d="M0 25V0h25v25zm13.975-5.559a2.947 2.947 0 002.947 2.947 2.949 2.949 0 002.947-2.947 2.947 2.947 0 00-2.947-2.947 2.945 2.945 0 00-2.947 2.946zm-8.842 0a2.948 2.948 0 002.947 2.947 2.948 2.948 0 002.947-2.947 2.946 2.946 0 00-2.947-2.947 2.946 2.946 0 00-2.948 2.946zm5.772-8.959l-.154.112a2.716 2.716 0 00-.986 3.036l.059.18a2.714 2.714 0 002.582 1.876h.188a2.715 2.715 0 002.583-1.876l.058-.18a2.713 2.713 0 00-.986-3.036l-.152-.112a2.718 2.718 0 00-1.6-.518 2.713 2.713 0 00-1.597.517zm5.7.941a2.945 2.945 0 002.947 2.947 2.946 2.946 0 002.947-2.947 2.948 2.948 0 00-2.947-2.947 2.947 2.947 0 00-2.946 2.947zm-14.106 0a2.945 2.945 0 002.947 2.947 2.946 2.946 0 002.947-2.947 2.948 2.948 0 00-2.947-2.947A2.947 2.947 0 002.5 11.423zm7.053-6.05a2.948 2.948 0 002.947 2.947 2.948 2.948 0 002.947-2.947 2.948 2.948 0 00-2.947-2.948 2.948 2.948 0 00-2.946 2.947zm2.261 8.93l.274-.37h.831l.271.374-.692.942zm1.466-.713l.245-.794.436-.15.7.937-1.108.377zm-2.942 0l.692-.944.437.146.253.792-.272.372zm2.524-1.819v-.462l1.112-.365v1.17l-.437.143zm-1.826.343v-1.17l1.112.365v.462l-.675.486z" fill="#fff" stroke="transparent" stroke-miterlimit="10"/></svg>