<svg xmlns="http://www.w3.org/2000/svg" viewBox="0 0 24 24"><path data-name="Path 67" d="M0 0h24v24H0z" fill="none"/><path data-name="Path 68" d="M11.99 2A10 10 0 1 0 22 12 10 10 0 0 0 11.99 2zm6.93 6h-2.95a15.649 15.649 0 0 0-1.38-3.56A8.03 8.03 0 0 1 18.92 8zM12 4.04A14.087 14.087 0 0 1 13.91 8h-3.82A14.087 14.087 0 0 1 12 4.04zM4.26 14a7.822 7.822 0 0 1 0-4h3.38a16.515 16.515 0 0 0-.14 2 16.515 16.515 0 0 0 .14 2zm.82 2h2.95a15.649 15.649 0 0 0 1.38 3.56A7.987 7.987 0 0 1 5.08 16zm2.95-8H5.08a7.987 7.987 0 0 1 4.33-3.56A15.649 15.649 0 0 0 8.03 8zM12 19.96A14.087 14.087 0 0 1 10.09 16h3.82A14.087 14.087 0 0 1 12 19.96zM14.34 14H9.66a14.713 14.713 0 0 1-.16-2 14.585 14.585 0 0 1 .16-2h4.68a14.585 14.585 0 0 1 .16 2 14.713 14.713 0 0 1-.16 2zm.25 5.56A15.649 15.649 0 0 0 15.97 16h2.95a8.03 8.03 0 0 1-4.33 3.56zM16.36 14a16.515 16.515 0 0 0 .14-2 16.515 16.515 0 0 0-.14-2h3.38a7.822 7.822 0 0 1 0 4z" fill="#999"/></svg>