<svg xmlns="http://www.w3.org/2000/svg" width="26.3" height="24"><g fill="#FDEF30"><path d="M16.7 18.6c2-2.5 5.5-3.2 8.5-2.7l.6.1-.4.5c-1.9 2.6-5.5 3.4-8.6 2.7l-.6-.1.5-.5zM17.5.4c2.1 1.7 3.4 4.6 2.9 7.3l-.1.6-.5-.4c-2.2-1.6-3.7-4.6-2.9-7.3L17 0l.5.4z"/><path class="st0" d="M26.3 9.2c-.4 3-2.6 6-5.6 6.7l-.6.1.1-.6c.5-3 2.6-5.7 5.6-6.7l.6-.2-.1.7zm-3.2-6.6c1.1 2.6.8 5.8-1 8l-.4.5-.3-.6c-1.1-2.6-.8-5.8 1-8l.4-.5.3.6zM3.9 2.5c1.8 2.3 2 5.4 1 8l-.3.6-.4-.5c-1.7-2.3-2.1-5.4-1-8l.3-.6.4.5zm5.6 16.7c-3 .6-6.6-.2-8.6-2.7L.5 16l.6-.1c3-.5 6.5.2 8.5 2.7l.4.5-.5.1z"/><path class="st0" d="M9.5.6c.8 2.7-.7 5.7-2.9 7.3l-.5.4-.1-.6c-.5-2.8.8-5.6 2.9-7.3l.4-.4.2.6zM.6 8.8c2.9.9 5 3.7 5.6 6.7l.1.5-.6-.1C2.6 15.2.5 12.2.1 9.2L0 8.6l.6.2zm14.7 12.6c.5.5 1 1 1.6 1.4l.4.3-.3.3c-.2.1-.3.3-.5.4l-.2.2-.2-.1c-1.4-.6-1.8-2.1-2.9-2.9-1.1.7-1.5 2.2-2.9 2.9l-.3.1-.2-.2c-.1-.1-.3-.3-.5-.4l-.3-.3.4-.3c.6-.4 1.1-.9 1.6-1.4-.7.3-1.4.7-2.1.9-1.4.2-2.9.3-4.2-.3l-.6-.3.6-.4c1.3-.9 2.7-1.7 4.3-1.8 1.3-.1 2.6 0 3.8.2.2.1.5.1.7 0 1.2-.3 2.5-.3 3.8-.2 1.6.1 3 1 4.3 1.9l.6.4-.6.2c-1.3.6-2.8.5-4.2.3-.7-.2-1.4-.6-2.1-.9z"/></g></svg>
