<svg xmlns="http://www.w3.org/2000/svg" width="24" height="24"><g fill="#FDEF30"><path d="M4.2 16.8l.3-2.3c-.5-.4-.9-.8-1.2-1.3l-2.3.3-1-2.3 1.8-1.4c-.1-.6-.1-1.2 0-1.8L0 6.5l1-2.3 2.3.3c.3-.5.8-.9 1.2-1.3L4.3 1l2.3-1L8 1.8c.6-.1 1.2-.1 1.8 0L11.2 0l2.3 1-.3 2.3c.5.4.9.8 1.2 1.3l2.3-.3 1 2.3L16 8c.1.6.1 1.2 0 1.8l1.8 1.4-1 2.3-2.3-.3c-.4.5-.8.9-1.3 1.2l.3 2.3-2.3 1L9.7 16c-.5 0-1.1 0-1.7-.1l-1.4 1.8-2.4-.9zm3.2-4.4c2 .8 4.2-.1 5-2.1.8-2-.1-4.2-2.1-5s-4.2.1-5 2.1c-.8 1.9.1 4.2 2.1 5z"/><path d="M24 19.2v-1.5l-1.3-.4c-.1-.3-.2-.7-.4-1l.7-1.2-1.2-1.1-1.2.7c-.3-.2-.6-.3-1-.4l-.4-1.3h-1.5l-.4 1.3c-.3.1-.7.2-1 .4l-1.2-.7-1.1 1.1.7 1.2c-.2.3-.3.6-.4 1l-1.3.4v1.5l1.3.4c.1.3.2.7.4 1l-.7 1.2 1.1 1.1 1.2-.7c.3.2.6.3 1 .4l.4 1.3h1.5l.4-1.3c.3-.1.7-.2 1-.4l1.2.7 1.1-1.1-.7-1.2c.2-.3.3-.6.4-1l1.4-.4zm-5.5 1.5c-1.2 0-2.3-1-2.3-2.3 0-1.2 1-2.3 2.3-2.3s2.3 1 2.3 2.3c-.1 1.3-1.1 2.3-2.3 2.3z"/></g></svg>