<?xml version="1.0" encoding="UTF-8" standalone="no"?>
<svg
   xmlns:dc="http://purl.org/dc/elements/1.1/"
   xmlns:cc="http://creativecommons.org/ns#"
   xmlns:rdf="http://www.w3.org/1999/02/22-rdf-syntax-ns#"
   xmlns:svg="http://www.w3.org/2000/svg"
   xmlns="http://www.w3.org/2000/svg"
   id="svg8"
   version="1.1"
   viewBox="0 0 26 26"
   height="26"
   width="26">
  <metadata
     id="metadata12">
    <rdf:RDF>
      <cc:Work
         rdf:about="">
        <dc:format>image/svg+xml</dc:format>
        <dc:type
           rdf:resource="http://purl.org/dc/dcmitype/StillImage" />
        <dc:title></dc:title>
      </cc:Work>
    </rdf:RDF>
  </metadata>
  <defs
     id="defs4">
    <style
       id="style2">.a{fill:#ffdeec;}</style>
  </defs>
  <path
     style="stroke-width:1.04"
     id="path6"
     d="M 3.40496,0 V 26 H 22.59504 V 6.19008 h -5.56608 a 0.624,0.624 0 0 1 -0.624,-0.624 V 0 Z m 14.2376,0 v 4.95248 h 4.95248 z m -11.544,6.5 h 6.89624 a 0.624,0.624 0 0 1 0.01768,1.2376 H 6.19112 A 0.624,0.624 0 1 1 6.10376,6.5 Z m 0,3.40496 h 13.71136 a 0.624,0.624 0 0 1 0.01768,1.2376 H 6.19112 A 0.624,0.624 0 1 1 6.10376,9.90496 Z m 0,3.40496 h 13.71136 a 0.624,0.624 0 0 1 0.01768,1.2376 H 6.19112 a 0.624,0.624 0 1 1 -0.08736,-1.2376 z m 0,3.40496 h 13.71136 a 0.624,0.624 0 0 1 0.01768,1.2376 H 6.19112 a 0.624,0.624 0 1 1 -0.08736,-1.2376 z m 0,3.40496 h 13.71136 a 0.624,0.624 0 0 1 0.01768,1.2376 H 6.19112 a 0.624,0.624 0 1 1 -0.08736,-1.2376 z"
     class="a" />
</svg>
