<svg id="Group_58" data-name="Group 58" xmlns="http://www.w3.org/2000/svg" viewBox="0 0 82.659 23.997"><defs><style>.cls-1{fill:#fff}</style></defs><path id="Path_10" data-name="Path 10" class="cls-1" d="M275.017.178c.7.7 1.372 1.364 2.025 2.033.056.056.056.2.056.307 0 2.832.008 5.664 0 8.5a2.676 2.676 0 0 0 1.138 2.316 2.56 2.56 0 0 0 3.978-1.654 3.837 3.837 0 0 0 .056-.742V.557h2.082v10.49a4.668 4.668 0 0 1-9.3.694 5.37 5.37 0 0 1-.048-.621V.468c.013-.089.013-.153.013-.29zM258.37 5.1c-.339.9-.662 1.743-.96 2.59-.944 2.518-1.9 5.035-2.832 7.553a.275.275 0 0 1-.315.226c-.67-.008-1.356 0-2.058 0 .2-.508.4-.984.589-1.485q2.736-6.863 5.48-13.726c.024-.048.032-.1.056-.137a.754.754 0 0 1 .1-.121c.048.048.1.073.129.129.137.339.282.694.42 1.049q2.808 7.032 5.624 14.064c.024.056.048.121.081.21h-1.517c-.21 0-.42-.008-.621 0a.269.269 0 0 1-.315-.226q-1.852-4.926-3.728-9.844a.921.921 0 0 1-.133-.282zm34.439 10.352c.315-.8.621-1.565.928-2.332 1.719-4.293 3.421-8.569 5.14-12.862.024-.048.032-.1.056-.137a1.4 1.4 0 0 1 .1-.121.331.331 0 0 1 .129.129c.137.315.258.646.387.976q2.82 7.068 5.656 14.161c.024.048.032.1.073.186-.686 0-1.339-.008-1.985.008a.449.449 0 0 1-.516-.355c-1.243-3.316-2.5-6.633-3.784-10a2.428 2.428 0 0 0-.1.234q-1.84 4.9-3.671 9.8a.382.382 0 0 1-.436.307c-.646-.008-1.283.008-1.977.008zm-26.87-13.064c.637-.637 1.21-1.21 1.791-1.783a.25.25 0 0 1 .153-.073 4.009 4.009 0 0 1 4.406 2.929 3.447 3.447 0 0 1-1.049 3.655.124.124 0 0 0-.032.048c.21.137.42.282.621.444a4.344 4.344 0 0 1-.42 7.028 4.746 4.746 0 0 1-2.493.791c-.952.032-1.92.008-2.9.008a.672.672 0 0 1 .1-.137c.533-.541 1.073-1.081 1.614-1.614a.576.576 0 0 1 .331-.129 9.321 9.321 0 0 0 1.436-.121 2.512 2.512 0 0 0 1.824-2.856 2.538 2.538 0 0 0-2.445-2.243c-.871-.008-1.727 0-2.6 0h-.29a1.73 1.73 0 0 1 .2-.21c.412-.412.831-.815 1.235-1.243a1 1 0 0 1 .9-.379 1.822 1.822 0 0 0 1.356-.484 2.138 2.138 0 0 0 .549-2.34 1.974 1.974 0 0 0-1.872-1.291zm-19.039.089h-4.7c.056-.073.081-.121.121-.137.565-.549 1.114-1.114 1.695-1.67a.475.475 0 0 1 .29-.129c3.066-.008 6.141 0 9.2 0 .032 0 .081.008.153.008-.056.073-.1.121-.129.161-.541.541-1.081 1.081-1.638 1.614a.587.587 0 0 1-.387.153c-.823.008-1.646.008-2.5.008v13.338c-.073-.056-.1-.073-.129-.1-.613-.613-1.235-1.226-1.832-1.848a.541.541 0 0 1-.121-.355c-.008-3.575 0-7.149 0-10.724a2.008 2.008 0 0 1-.016-.323zM289.477 13.5V2.493a.541.541 0 0 1 .161-.412c.573-.565 1.138-1.138 1.719-1.719.048-.048.1-.1.186-.178v15.228h-6.794a1.713 1.713 0 0 1 .137-.161c.541-.541 1.081-1.081 1.638-1.614a.657.657 0 0 1 .363-.153c.863.016 1.711.016 2.59.016z" transform="translate(-222.657)"/><g id="Group_57" data-name="Group 57" transform="translate(56.08 17.97)"><path id="Path_11" data-name="Path 11" class="cls-1" d="M700.955 226.477a2.977 2.977 0 1 1-2.978-2.977 2.941 2.941 0 0 1 1.711.549l-.411.678a2.11 2.11 0 0 0-1.291-.436 2.2 2.2 0 1 0 2.041 2.881h-1.622v-.008l.742-.734h1.816v.048z" transform="translate(-695 -223.435)"/><path id="Path_12" data-name="Path 12" class="cls-1" d="M779.056 222.7h.048l2.356 5.89h-.9l-1.5-3.954-1.485 3.954h-.875z" transform="translate(-770.108 -222.7)"/><path id="Path_13" data-name="Path 13" class="cls-1" d="M846.8 229.318V223.5l2.808 2.808 2.808-2.808v.008h.008v5.81h-.791V225.4l-2.025 2.017-2.017-2.009v3.913z" transform="translate(-834.551 -223.435)"/><path id="Path_14" data-name="Path 14" class="cls-1" d="M936.964 225.842H934.1v-.742h2.865zm0 2.526H934.1v-.742h2.865zm0 2.421H934.1v-.742h2.865z" transform="translate(-914.807 -224.906)"/><path id="Path_15" data-name="Path 15" class="cls-1" d="M982.418 224.928a1.437 1.437 0 0 1 1.549-1.428 1.583 1.583 0 0 1 1.364.767l-.694.371a.79.79 0 0 0-.678-.387.678.678 0 0 0-.75.7c0 .452.363.75.944 1 1.081.46 1.452 1.122 1.452 1.824a1.669 1.669 0 0 1-1.743 1.686 1.857 1.857 0 0 1-1.662-1.041l.71-.339a1.053 1.053 0 0 0 .952.637.891.891 0 0 0 .944-.936c0-.573-.6-.944-1.146-1.178a1.877 1.877 0 0 1-1.242-1.676z" transform="translate(-959.026 -223.435)"/></g><path id="Path_16" data-name="Path 16" class="cls-1" d="M0 .2v15.783h15.783V.2zm5.269 12.846H2.848V3.218h2.421zm2.953 0H5.8V3.218h2.422zm4.6-.742c-.726.258-1.469.508-2.235.767-.089-.387-.169-.75-.242-1.13-.533-2.5-1.057-5.019-1.59-7.536 0-.016-.008-.04-.008-.048-.073-.347-.073-.347.282-.468.67-.226 1.331-.46 2.025-.694.089.387.169.767.25 1.13.5 2.364.992 4.712 1.485 7.076.04.234.1.468.137.7a.309.309 0 0 1-.104.199z" transform="translate(0 -.184)"/></svg>