<svg xmlns="http://www.w3.org/2000/svg" width="8.7" height="24"><g fill="#F04937"><path d="M5.5 13.1c1-2.3 2-4.5 3-6.8h-3L7.9 0H2.8c-.1 0-.1 0-.2.1-.2.7-.4 1.4-.6 2.2-.2.5-.3 1-.5 1.6C1.2 4.9.9 6 .6 7L.3 8.2l-.3.9h3.1L1 15.4h3c-.8 2.9-1.6 5.7-2.4 8.5 2.3-3.6 4.6-7.2 7-10.9-1 .1-2.1.1-3.1.1z"/><path d="M5.5 13.1h3.2C6.3 16.8 4 20.4 1.7 24c.8-2.8 1.6-5.7 2.4-8.5h-3l2.1-6.3H.1l.3-.9c0-.5.1-.9.2-1.3.3-1 .6-2.1.9-3.1.2-.6.3-1.1.5-1.6.2-.7.4-1.5.6-2.2l.1-.1h5.1c-.7 2.1-1.5 4.2-2.3 6.3h3c-1 2.3-2 4.6-3 6.8z"/></g></svg>