<svg xmlns="http://www.w3.org/2000/svg" viewBox="0 0 98.44 100"><defs><style>.cls-1{fill:#231f20;}</style></defs><title>icon_golem</title><g id="Layer_2" data-name="Layer 2"><g id="Layer_1-2" data-name="Layer 1"><path class="cls-1" d="M98.36,49.18C98,46,93.26,40.21,93,38.74,88.47,12.93,82.3,5.33,81.85,4.67,79.55,1.93,64.45-.07,49.2,0S18.85,1.93,16.55,4.67c-.45.66-6.62,8.26-11.16,34.07C5.14,40.21.38,46,0,49.18s1.7,32.7,2.9,34.08c.72.82,4.42,4,16.44,9.19C27.45,96,27.48,100,39.78,100H58.62c12.46,0,12.61-4.12,20.72-7.69,11.83-5.21,16.59-8.24,17.3-9C97.85,81.88,98.71,52.33,98.36,49.18ZM39.22,50.77c-1.78.09-15.92-.68-17.14-1.44s-2.44-12.57-2.44-12.57l24.68,8.93S41,50.69,39.22,50.77Zm37.1-1.44c-1.22.76-15.36,1.53-17.14,1.44s-5.1-5.08-5.1-5.08l24.68-8.93S77.54,48.56,76.32,49.33Z"/></g></g></svg>