<svg xmlns="http://www.w3.org/2000/svg" viewBox="0 0 64.66 100"><defs><style>.cls-1{fill:#010101;}</style></defs><title>hero</title><g id="Layer_2" data-name="Layer 2"><g id="Layer_1-2" data-name="Layer 1"><path class="cls-1" d="M58.26,20.39C55.1,12,47.21,5.68,37.49,4a11.63,11.63,0,0,1-1.6-4H28.77a11.63,11.63,0,0,1-1.6,4C17.45,5.68,9.55,12,6.4,20.39A63.21,63.21,0,0,1,0,22.5S1.78,62.93,2.22,64.08C4.45,69.87,25.51,100,25.51,100s.14-46.32.14-48.68c0-.93-16.75,4.34-19.72-15.14a114.72,114.72,0,0,0,26.39,5.65h0a114.9,114.9,0,0,0,26.4-5.65C55.76,55.66,39,50.39,39,51.32c0,2.36.15,48.68.15,48.68S60.21,69.87,62.43,64.08c.44-1.15,2.23-41.58,2.23-41.58A63.21,63.21,0,0,1,58.26,20.39ZM13.35,53c2.09,2.6,7.73,1.93,7.73,1.93V82.25l-2-2.32V59.1a7.65,7.65,0,0,1-5.72-1.86Zm38,4.25A7.68,7.68,0,0,1,45.6,59.1V79.93l-2,2.32V54.92s5.63.67,7.73-1.93Z"/></g></g></svg>