<svg xmlns="http://www.w3.org/2000/svg" viewBox="0 0 59.97 100"><defs><style>.cls-1{fill:#231f20;}</style></defs><title>icon_troop</title><g id="Layer_2" data-name="Layer 2"><g id="Layer_1-2" data-name="Layer 1"><path class="cls-1" d="M.08,66.66c.26,2.61,2.56,7.68,3.53,10.12s17.86,20.6,21.61,21.91A18.89,18.89,0,0,0,30.35,100l4.39-1.31c3.76-1.31,20.6-19.33,21.62-21.91s3.26-7.51,3.52-10.12c.5-5-1.39-18.51-1.83-20.17S43.17,6.54,39.73,4.25C37.87,3,34,.69,31.78.16a11.57,11.57,0,0,0-3.85,0C24.35,1,22,3,20.23,4.25,16.85,6.62,2.35,44.84,1.92,46.49S-.42,61.62.08,66.66ZM49.51,52c1.35.29-3.44,6.35-4.14,6.63-.88.35-7.53,1.32-8.55.24-.58-.62-1.21-7-1.21-7S48.28,51.69,49.51,52ZM10.42,52c1.23-.26,13.91-.09,13.91-.09s-.63,6.34-1.22,7c-1,1.08-7.67.11-8.55-.24C13.86,58.3,9.07,52.24,10.42,52Z"/></g></g></svg>